<?xml version="1.0" encoding="UTF-8"?>
<svg id="Layer_1" data-name="Layer 1" xmlns="http://www.w3.org/2000/svg" viewBox="0 0 62.83 87.77">
  <defs>
    <style>
      .cls-1, .cls-2, .cls-3, .cls-4, .cls-5, .cls-6 {
        stroke: #231f20;
      }

      .cls-1, .cls-2, .cls-3, .cls-7 {
        fill: none;
      }

      .cls-1, .cls-6, .cls-8 {
        stroke-miterlimit: 10;
      }

      .cls-2, .cls-3, .cls-4, .cls-7, .cls-5, .cls-9 {
        stroke-linejoin: round;
      }

      .cls-2, .cls-3, .cls-4, .cls-5, .cls-9, .cls-8 {
        stroke-linecap: round;
      }

      .cls-10 {
        font-size: 3.46px;
        letter-spacing: .02em;
      }

      .cls-10, .cls-11 {
        font-family: Arial-BoldMT, Arial;
        font-weight: 700;
      }

      .cls-10, .cls-11, .cls-5, .cls-6 {
        fill: #231f20;
      }

      .cls-3 {
        stroke-width: .5px;
      }

      .cls-4, .cls-12, .cls-9, .cls-8 {
        fill: #ffcc08;
      }

      .cls-7 {
        stroke: #55131a;
      }

      .cls-11 {
        font-size: 18px;
        letter-spacing: .12em;
      }

      .cls-9 {
        stroke-width: 1.5px;
      }

      .cls-9, .cls-8 {
        stroke: #561018;
      }

      .cls-6 {
        stroke-width: .25px;
      }

      .cls-8 {
        stroke-width: .75px;
      }
    </style>
  </defs>
  <path class="cls-9" d="M10.18,33.16c-.69,.43-1.18,1.13-1.36,2.19-.15,.88-.04,1.78,.09,2.66,1.57,10.89,4.57,21.79,9.33,31.74,2.89,6.05,7.19,11.29,11.62,16.27,.49,.55,1.14,1.15,1.86,.98,.98-.24,1.75-1.67,2.34-2.41,.82-1.04,1.63-2.09,2.41-3.15,1.56-2.14,3.04-4.33,4.43-6.59,2.78-4.51,5.2-9.23,7.23-14.12,.31-.74,.52-1.48,.78-2.23,1.92-5.68,3.22-11.55,4.13-17.48,.19-1.22,.36-2.44,.51-3.67,.19-1.5,.22-3.06-1.22-3.92-1.15-.69-2.64-.68-3.94-.74-11.91-.52-23.85-.43-35.76-.13-.94,.02-1.8,.2-2.46,.61Z"/>
  <line class="cls-8" x1="15.37" y1="40.79" x2="15.37" y2="63.9"/>
  <line class="cls-8" x1="18.57" y1="40.79" x2="18.57" y2="71.35"/>
  <line class="cls-8" x1="21.77" y1="40.79" x2="21.77" y2="76.18"/>
  <line class="cls-8" x1="24.97" y1="40.79" x2="24.97" y2="80.32"/>
  <line class="cls-8" x1="28.17" y1="40.79" x2="28.17" y2="84.32"/>
  <line class="cls-8" x1="31.38" y1="40.79" x2="31.38" y2="86.54"/>
  <path class="cls-8" d="M34.63,40.79c-.02,14.28-.04,28.55-.06,42.83"/>
  <line class="cls-8" x1="37.84" y1="40.79" x2="37.84" y2="78.93"/>
  <line class="cls-8" x1="41.04" y1="40.79" x2="41.04" y2="73.95"/>
  <line class="cls-8" x1="44.24" y1="40.79" x2="44.24" y2="68.46"/>
  <line class="cls-8" x1="47.44" y1="40.79" x2="47.44" y2="61.83"/>
  <text class="cls-10" transform="translate(13.8 38.56) scale(1 1.25)"><tspan x="0" y="0">PRO BONO OMNIUM</tspan></text>
  <g>
    <g>
      <path class="cls-12" d="M42.68,13.01l-.31,.61c-1.63,.54-3.62,1.05-5.94,1.36-1.88,.24-3.59,.3-5.06,.27-1.24,.04-3.07-.04-5.18-.65-2.14-.62-3.72-1.56-4.75-2.26,.75-.98,2.18-2.57,4.48-3.83,2.26-1.23,4.34-1.57,5.56-1.67,3.17,.13,5.01,1.12,6.1,2.01,.38,.31,1.3,1.13,3.76,3.22,.37,.3,.78,.64,1.34,.95Z"/>
      <path class="cls-12" d="M42.37,13.61c-.42,.95-1.75,3.59-4.81,5.35-2.46,1.4-4.79,1.53-5.87,1.51-2.08-.33-6.15-1.24-10.25-4.27-3.78-2.77-5.83-6.04-6.79-7.88,2.26,1.34,4.53,2.67,6.79,4,1.03,.71,2.62,1.64,4.75,2.26,2.11,.61,3.93,.69,5.18,.65,1.47,.03,3.18-.03,5.06-.27,2.32-.31,4.31-.82,5.94-1.36Z"/>
    </g>
    <path class="cls-2" d="M42.26,9.84c0-.18,.04-1.43,1.09-2.32,.89-.75,1.92-.71,2.15-.69,.31-.03,1.27-.06,2.21,.59,1.23,.85,1.43,2.21,1.46,2.42,0,.38-.08,1.34-.75,2.26-.88,1.23-2.16,1.56-2.48,1.63-.64,.03-1.6-.01-2.65-.44-.23-.08-.42-.18-.61-.28-.57-.31-.98-.65-1.34-.95-2.46-2.09-3.38-2.91-3.76-3.22-1.09-.89-2.93-1.88-6.1-2.01-1.22,.1-3.3,.44-5.56,1.67-2.31,1.26-3.73,2.86-4.48,3.83,1.03,.71,2.62,1.64,4.75,2.26,2.11,.61,3.93,.69,5.18,.65,1.47,.03,3.18-.03,5.06-.27,2.32-.31,4.31-.82,5.94-1.36-.42,.95-1.75,3.59-4.81,5.35-2.46,1.4-4.79,1.53-5.87,1.51-2.08-.33-6.15-1.24-10.25-4.27-3.78-2.77-5.83-6.04-6.79-7.88,2.26,1.34,4.53,2.67,6.79,4"/>
  </g>
  <ellipse class="cls-4" cx="13.3" cy="4.23" rx="1.66" ry="2.6"/>
  <g>
    <path class="cls-6" d="M21.47,26.13c-1.79,0-3.23,.92-3.37,2.08-.14-1.16-1.59-2.08-3.37-2.08-1.88,0-3.4,1.01-3.4,2.26s1.52,2.26,3.4,2.26,3.23-.92,3.37-2.08c.14,1.16,1.59,2.08,3.37,2.08,1.88,0,3.4-1.01,3.4-2.26s-1.52-2.26-3.4-2.26Z"/>
    <ellipse class="cls-6" cx="28.27" cy="28.39" rx="3.4" ry="2.26"/>
    <path class="cls-6" d="M41.81,26.13c-1.79,0-3.23,.92-3.37,2.08-.14-1.16-1.59-2.08-3.37-2.08-1.88,0-3.4,1.01-3.4,2.26s1.52,2.26,3.4,2.26,3.23-.92,3.37-2.08c.14,1.16,1.59,2.08,3.37,2.08,1.88,0,3.4-1.01,3.4-2.26s-1.52-2.26-3.4-2.26Z"/>
    <ellipse class="cls-6" cx="48.6" cy="28.39" rx="3.4" ry="2.26"/>
  </g>
  <circle class="cls-5" cx="31.32" cy="5.74" r="1.07"/>
  <line class="cls-8" x1="11.33" y1="32.7" x2="11.33" y2="50.32"/>
  <line class="cls-8" x1="51.09" y1="33.41" x2="51.09" y2="51.03"/>
  <path class="cls-5" d="M28.02,20.45c-4.24,.7-8.49,1.39-12.73,2.09-.04,.04-.3,.31-.29,.72,.01,.37,.24,.6,.29,.65h30.57c.08-.11,.26-.4,.28-.82,.01-.47-.2-.79-.28-.9-3.81-.57-7.62-1.14-11.44-1.72"/>
  <g>
    <g>
      <path class="cls-12" d="M62.3,45.84c0,.08,0,.23-.03,.38-.01,.16-.04,.31-.06,.47h0c-.11,.65-.4,1.5-1.06,2.32-1.16,1.41-2.69,1.74-3.1,1.81-.33,0-1.29-.06-2.26-.64h0c-.03-2.45-.07-4.88-.11-7.31l.04-2.46c.44,0,.83,.01,1.19,.04,.34,0,2.39,.04,3.96,1.73,1.37,1.49,1.43,3.25,1.43,3.66Z"/>
      <path class="cls-12" d="M62.22,46.68c.01-.16,.04-.31,.06-.47,0,.14-.03,.3-.06,.47Z"/>
      <path class="cls-12" d="M61.16,49c.66-.82,.95-1.67,1.06-2.31-.57,4.2-.72,7.58-.75,9.97-.06,3.44,.13,5.45-1.3,6.56-1.4,1.1-3.95,1.02-5.19-.23-.85-.85-.95-2.15-1.09-3.17-.1-4.48-.18-8.94-.27-13.41,.01,.11,.03,.2,.04,.27,.03,.31,.2,1.92,1.6,3.1,.17,.14,.35,.27,.54,.37h0c.98,.59,1.94,.65,2.26,.65,.41-.07,1.94-.4,3.1-1.81Z"/>
      <path class="cls-12" d="M55.68,42.87c.04,2.43,.08,4.87,.11,7.3-.18-.1-.37-.23-.54-.37-1.4-1.17-1.57-2.79-1.6-3.1-.01-.07-.03-.16-.04-.27v-.03c-.01-.2-.01-.38-.01-.58,.01-.38,.11-.86,.35-1.34,.55-1.07,1.47-1.5,1.73-1.61Z"/>
      <path class="cls-12" d="M55.73,40.4l-.04,2.46c-.25,.11-1.17,.54-1.73,1.61-.24,.48-.34,.96-.35,1.34-.01,.23,0,.42,.01,.58v.03c.08,4.47,.17,8.93,.27,13.41-.04-.3-.14-3.14-.07-3.13-1.85-.38-3.99-.11-5.83,.27-.01,.01-.25,.06-.5,.11-1.22,.33-3.39,1.16-8.35,4.43-1.47,.96-3.52,2.36-5.9,4.17-3.55,2.72-6.79,4.54-9.21,5.74-4.65,2.32-8.43,4.14-13.45,4.03-2.97-.07-5.39-.79-6.97-1.4-.96-5.23-1.94-10.47-2.9-15.7,.2,.59,.52,1.26,1.1,1.85,.31,.33,.64,.57,.98,.76,1.37,.81,2.79,.66,2.98,.64,.91-.03,2.14-.11,3.58-.37,.37-.07,.76-.14,1.16-.24,2.79-.64,4.84-1.64,6.76-2.66,5.57-2.96,10.72-6.7,16.15-9.93,2.96-1.77,6-3.42,9.17-4.77,3.01-1.29,5.93-2.53,9.21-3,1.5-.21,2.83-.27,3.92-.25Z"/>
      <path class="cls-12" d="M53.6,45.82c0,.2,0,.38,.01,.58-.01-.16-.03-.35-.01-.58Z"/>
      <path class="cls-12" d="M9.44,55.71c-.03,1.84-.06,3.69-.08,5.54-1.44,.25-2.67,.34-3.58,.37-.2,.03-1.61,.17-2.98-.64,0-1.32,.01-2.63,.03-3.95,.1,.27,.34,.79,.86,1.24,.75,.64,1.6,.71,1.87,.72,.2,.03,1.65,.21,2.81-.86,1.02-.96,1.07-2.21,1.07-2.43Z"/>
      <path class="cls-12" d="M.69,58.28c-.25-.93-.18-1.71-.17-1.87,0-.25-.06-2.05,1.37-3.38,1.33-1.24,2.96-1.17,3.24-1.16,.28-.01,1.67-.07,2.87,.93,1.32,1.1,1.43,2.65,1.44,2.9,0,.23-.06,1.47-1.07,2.43-1.16,1.07-2.62,.89-2.81,.86-.27-.01-1.12-.08-1.87-.72-.52-.45-.76-.98-.86-1.24-.01,1.32-.03,2.63-.03,3.95-.34-.2-.66-.44-.98-.76-.58-.59-.91-1.26-1.1-1.85-.01-.03-.01-.06-.03-.08Z"/>
    </g>
    <g>
      <path class="cls-7" d="M.69,58.28c-.25-.93-.18-1.71-.17-1.87,0-.25-.06-2.05,1.37-3.38,1.33-1.24,2.96-1.17,3.24-1.16,.28-.01,1.67-.07,2.87,.93,1.32,1.1,1.43,2.65,1.44,2.9,0,.23-.06,1.47-1.07,2.43-1.16,1.07-2.62,.89-2.81,.86-.27-.01-1.12-.08-1.87-.72-.52-.45-.76-.98-.86-1.24-.01,1.32-.03,2.63-.03,3.95"/>
      <path class="cls-7" d="M62.22,46.68c.03-.17,.06-.33,.06-.47,.03-.16,.03-.3,.03-.38,0-.41-.06-2.18-1.43-3.66-1.57-1.68-3.62-1.73-3.96-1.73-.35-.03-.75-.04-1.19-.04-1.09-.01-2.42,.04-3.92,.25-3.28,.47-6.2,1.71-9.21,3-3.17,1.34-6.21,3-9.17,4.77-5.43,3.22-10.58,6.97-16.15,9.93-1.92,1.02-3.97,2.02-6.76,2.66-.4,.1-.79,.17-1.16,.24-1.44,.25-2.67,.34-3.58,.37-.2,.03-1.61,.17-2.98-.64-.34-.2-.66-.44-.98-.76-.58-.59-.91-1.26-1.1-1.85"/>
      <path class="cls-7" d="M55.8,50.18c.98,.58,1.94,.64,2.26,.64,.41-.07,1.94-.4,3.1-1.81,.66-.82,.95-1.67,1.06-2.31"/>
      <path class="cls-7" d="M53.62,46.43c.01,.11,.03,.2,.04,.27,.03,.31,.2,1.92,1.6,3.1,.17,.14,.35,.27,.54,.37"/>
      <path class="cls-7" d="M55.8,50.16c-.03-2.43-.07-4.87-.11-7.3-.25,.11-1.17,.54-1.73,1.61-.24,.48-.34,.96-.35,1.34-.01,.23,0,.42,.01,.58"/>
      <line class="cls-7" x1="55.8" y1="50.16" x2="55.8" y2="50.18"/>
      <path class="cls-7" d="M.56,57.56l.13,.72s.01,.06,.03,.08c.96,5.23,1.94,10.47,2.9,15.7,1.58,.61,4,1.33,6.97,1.4,5.02,.11,8.8-1.71,13.45-4.03,2.42-1.2,5.66-3.03,9.21-5.74,2.38-1.81,4.43-3.21,5.9-4.17,4.95-3.27,7.13-4.1,8.35-4.43,.24-.06,.48-.1,.5-.11,1.84-.38,3.97-.65,5.83-.27-.07-.01,.03,2.83,.07,3.13,.14,1.02,.24,2.32,1.09,3.17,1.24,1.24,3.79,1.33,5.19,.23,1.43-1.12,1.24-3.13,1.3-6.56,.03-2.39,.18-5.77,.75-9.97h0c.01-.17,.04-.33,.06-.48,.01-.13,.04-.25,.06-.38"/>
      <path class="cls-7" d="M53.89,59.84c-.1-4.48-.18-8.94-.27-13.41v-.03c-.01-.2-.01-.38-.01-.58"/>
      <path class="cls-7" d="M9.44,55.71c-.03,1.84-.06,3.69-.08,5.54"/>
    </g>
  </g>
  <text class="cls-11" transform="translate(15.44 72.28) rotate(-29.5) scale(.76 .65)"><tspan x="0" y="0">T S S</tspan></text>
  <path class="cls-1" d="M12.89,1.72c-.22-.72-.28-1.12-.16-1.2,.18-.13,.79,.54,1.81,2.01"/>
  <path class="cls-3" d="M11.69,4.08c.9-.6,1.31-1.49,1.11-2.04-.04-.1-.14-.32-.47-.49"/>
</svg>